<?xml version="1.0" encoding="UTF-8" standalone="no"?>
<svg
   width="261.91965mm"
   height="92.676353mm"
   viewBox="0 0 261.91966 92.676353"
   version="1.1"
   id="svg8"
   xmlns="http://www.w3.org/2000/svg"
   xmlns:svg="http://www.w3.org/2000/svg"
   xmlns:rdf="http://www.w3.org/1999/02/22-rdf-syntax-ns#"
   xmlns:cc="http://creativecommons.org/ns#"
   xmlns:dc="http://purl.org/dc/elements/1.1/">
  <defs
     id="defs2" />
  <metadata
     id="metadata5">
    <rdf:RDF>
      <cc:Work
         rdf:about="">
        <dc:format>image/svg+xml</dc:format>
        <dc:type
           rdf:resource="http://purl.org/dc/dcmitype/StillImage" />
        <dc:title />
      </cc:Work>
    </rdf:RDF>
  </metadata>
  <g
     id="layer1"
     transform="translate(-37.97165,-14.505969)">
    <g
       aria-label="   DGEMONT
ROBOTICS"
       id="text877"
       style="font-size:4.23333px;line-height:0.95;font-family:Gidole;-inkscape-font-specification:Gidole;opacity:1;fill:#4c6cd6;stroke-width:0.265">
      <path
         d="m 107.66164,63.033401 5.32695,-25.18835 h 6.80861 q 4.62139,0 7.1614,2.469446 2.57528,2.434169 2.57528,7.055561 0,4.797781 -1.65806,8.325561 -1.62278,3.492502 -4.79778,5.432781 -3.13973,1.905001 -7.65529,1.905001 z m 6.17361,-4.409725 h 1.83445 q 2.89278,0 4.7625,-1.516945 1.86973,-1.552223 2.78695,-4.056947 0.91722,-2.504724 0.91722,-5.397504 0,-2.786946 -1.30528,-4.092225 -1.27,-1.340556 -3.52778,-1.340556 h -1.97555 z"
         style="font-style:italic;font-weight:bold;font-size:35.2778px;font-family:Barlow;-inkscape-font-specification:'Barlow Bold'"
         id="path863" />
      <path
         d="m 142.0575,63.38618 q -4.37445,0 -6.84389,-2.504724 -2.46945,-2.504724 -2.46945,-7.302505 0,-3.21028 0.91722,-6.10306 0.9525,-2.928058 2.82223,-5.150559 1.86972,-2.257779 4.62139,-3.563058 2.75167,-1.305279 6.38528,-1.305279 3.77472,0 7.05556,1.693335 l -1.97556,4.339169 q -1.27,-0.705556 -2.54,-1.093611 -1.27,-0.423334 -2.78694,-0.423334 -2.32834,0 -4.05695,0.987778 -1.69334,0.987779 -2.82223,2.645836 -1.12889,1.622778 -1.69333,3.598335 -0.56445,1.975557 -0.56445,3.951114 0,2.822224 1.19945,4.303892 1.19945,1.44639 3.88056,1.44639 0.88194,0 1.51694,-0.105834 0.67028,-0.141111 1.41112,-0.3175 l 1.12889,-5.150559 h -4.58612 l 0.9525,-4.445003 h 9.7014 l -2.78695,13.123342 q -1.72861,0.599723 -3.66889,0.987779 -1.905,0.388056 -4.79778,0.388056 z"
         style="font-style:italic;font-weight:bold;font-size:35.2778px;font-family:Barlow;-inkscape-font-specification:'Barlow Bold'"
         id="path865" />
      <path
         d="m 155.88642,63.033401 5.32694,-25.18835 h 14.07585 l -0.91723,4.374448 h -8.81945 l -1.16416,5.538614 h 8.21972 l -0.9525,4.374448 h -8.21973 l -1.37583,6.491115 h 8.81945 l -0.91722,4.409725 z"
         style="font-style:italic;font-weight:bold;font-size:35.2778px;font-family:Barlow;-inkscape-font-specification:'Barlow Bold'"
         id="path867" />
      <path
         d="m 175.00698,63.033401 5.32694,-25.18835 h 6.94973 l 1.12889,18.838346 h 0.14111 l 9.45445,-18.838346 h 7.30251 l -5.32695,25.18835 h -4.83306 l 2.50472,-11.923896 q 0.24695,-1.199446 0.56445,-2.540002 0.35278,-1.375834 0.67028,-2.681113 0.35277,-1.340557 0.635,-2.363613 h -0.14111 l -9.80723,19.508624 h -4.83306 l -1.05834,-19.508624 h -0.14111 q -0.0705,0.740834 -0.28222,2.046113 -0.21167,1.270001 -0.49389,2.786946 -0.28222,1.516946 -0.56444,2.963335 l -2.46945,11.71223 z"
         style="font-style:italic;font-weight:bold;font-size:35.2778px;font-family:Barlow;-inkscape-font-specification:'Barlow Bold'"
         id="path869" />
      <path
         d="m 216.59947,63.38618 q -4.58611,0 -6.985,-2.610558 -2.36362,-2.645835 -2.36362,-6.985005 0,-2.963335 0.77612,-5.856115 0.81138,-2.892779 2.43416,-5.256392 1.65806,-2.363613 4.16278,-3.774725 2.50473,-1.44639 5.96195,-1.44639 4.58612,0 6.87917,2.57528 2.32834,2.575279 2.32834,6.843893 0,3.069169 -0.77611,6.032504 -0.77611,2.928058 -2.39889,5.326948 -1.5875,2.363613 -4.09223,3.774725 -2.46944,1.375835 -5.92667,1.375835 z m 0.38806,-4.480281 q 2.04611,0 3.73944,-1.44639 1.69334,-1.481668 2.68112,-4.162781 1.02305,-2.681113 1.02305,-6.279448 0,-2.328335 -1.09361,-3.70417 -1.05833,-1.411112 -3.175,-1.411112 -1.62278,0 -3.03389,0.952501 -1.37584,0.917223 -2.39889,2.57528 -0.98778,1.658056 -1.55223,3.810002 -0.56444,2.116668 -0.56444,4.550836 0,2.504724 1.16417,3.810003 1.16416,1.305279 3.21028,1.305279 z"
         style="font-style:italic;font-weight:bold;font-size:35.2778px;font-family:Barlow;-inkscape-font-specification:'Barlow Bold'"
         id="path871" />
      <path
         d="m 231.80419,63.033401 5.32694,-25.18835 h 6.13834 l 5.85612,18.556124 h 0.14111 q 0.10583,-0.740834 0.28222,-1.905001 0.21167,-1.199446 0.42333,-2.469447 0.24695,-1.27 0.45861,-2.257779 l 2.54001,-11.923897 h 4.72722 l -5.32695,25.18835 h -5.89139 l -6.13834,-19.050012 h -0.17639 q -0.0353,0.211666 -0.14111,1.023056 -0.10583,0.776112 -0.28222,1.869723 -0.14111,1.093612 -0.35278,2.25778 -0.17639,1.128889 -0.35277,2.046112 l -2.50473,11.853341 z"
         style="font-style:italic;font-weight:bold;font-size:35.2778px;font-family:Barlow;-inkscape-font-specification:'Barlow Bold'"
         id="path873" />
      <path
         d="m 262.1078,63.033401 4.37444,-20.743347 h -6.06778 l 0.9525,-4.445003 h 17.39196 l -0.9525,4.445003 h -6.06778 l -4.37445,20.743347 z"
         style="font-style:italic;font-weight:bold;font-size:35.2778px;font-family:Barlow;-inkscape-font-specification:'Barlow Bold'"
         id="path875" />
      <path
         d="m 80.14493,96.547313 5.326948,-25.188351 h 6.173615 q 3.774725,0 5.961948,1.622779 2.222502,1.622779 2.222502,5.29167 0,2.998613 -1.587501,4.903615 -1.587501,1.869723 -3.951114,2.681113 l 4.480281,10.689174 h -5.715004 l -3.563058,-9.666118 h -2.046112 l -2.046113,9.666118 z m 8.219728,-14.005288 h 1.340556 q 2.257779,0 3.492502,-0.987778 1.270001,-0.987779 1.270001,-2.998613 0,-2.822224 -3.386669,-2.822224 h -1.270001 z"
         style="font-style:italic;font-weight:bold;font-size:35.2778px;font-family:Barlow;-inkscape-font-specification:'Barlow Bold'"
         id="path877" />
      <path
         d="m 112.17715,96.900091 q -4.58612,0 -6.98501,-2.610558 -2.36361,-2.645835 -2.36361,-6.985004 0,-2.963336 0.77611,-5.856116 0.81139,-2.892779 2.43417,-5.256392 1.65806,-2.363613 4.16278,-3.774725 2.50473,-1.44639 5.96195,-1.44639 4.58611,0 6.87917,2.57528 2.32834,2.575279 2.32834,6.843893 0,3.069169 -0.77612,6.032504 -0.77611,2.928058 -2.39889,5.326949 -1.5875,2.363612 -4.09222,3.774724 -2.46945,1.375835 -5.92667,1.375835 z m 0.38805,-4.480281 q 2.04612,0 3.73945,-1.44639 1.69334,-1.481668 2.68111,-4.162781 1.02306,-2.681113 1.02306,-6.279448 0,-2.328335 -1.09361,-3.70417 -1.05834,-1.411112 -3.175,-1.411112 -1.62278,0 -3.03389,0.952501 -1.37584,0.917223 -2.3989,2.57528 -0.98777,1.658056 -1.55222,3.810002 -0.56444,2.116668 -0.56444,4.550837 0,2.504723 1.16416,3.810002 1.16417,1.305279 3.21028,1.305279 z"
         style="font-style:italic;font-weight:bold;font-size:35.2778px;font-family:Barlow;-inkscape-font-specification:'Barlow Bold'"
         id="path879" />
      <path
         d="m 127.38186,96.547313 5.32695,-25.188351 h 7.33779 q 3.59833,0 5.78555,1.305279 2.18723,1.305279 2.18723,4.303892 0,2.575279 -1.44639,4.233336 -1.44639,1.658057 -4.05695,2.222501 v 0.141112 q 1.72861,0.458611 2.75167,1.693334 1.02306,1.199445 1.02306,3.069169 0,2.857502 -1.30528,4.691947 -1.30528,1.799168 -3.56306,2.681113 -2.25778,0.846668 -5.04473,0.846668 z m 8.46668,-15.204733 h 2.57528 q 1.86972,0 2.99861,-0.740834 1.16417,-0.776111 1.16417,-2.504724 0,-2.363612 -2.92806,-2.363612 h -2.61056 z m -2.29306,10.795007 h 3.10445 q 1.94028,0 3.10444,-0.9525 1.19945,-0.987779 1.19945,-2.822224 0,-1.340557 -0.77611,-2.046113 -0.77612,-0.740834 -2.36362,-0.740834 h -2.8575 z"
         style="font-style:italic;font-weight:bold;font-size:35.2778px;font-family:Barlow;-inkscape-font-specification:'Barlow Bold'"
         id="path881" />
      <path
         d="m 159.80219,96.900091 q -4.58611,0 -6.985,-2.610558 -2.36362,-2.645835 -2.36362,-6.985004 0,-2.963336 0.77612,-5.856116 0.81139,-2.892779 2.43416,-5.256392 1.65806,-2.363613 4.16279,-3.774725 2.50472,-1.44639 5.96194,-1.44639 4.58612,0 6.87917,2.57528 2.32834,2.575279 2.32834,6.843893 0,3.069169 -0.77611,6.032504 -0.77611,2.928058 -2.39889,5.326949 -1.5875,2.363612 -4.09223,3.774724 -2.46944,1.375835 -5.92667,1.375835 z m 0.38806,-4.480281 q 2.04611,0 3.73944,-1.44639 1.69334,-1.481668 2.68112,-4.162781 1.02305,-2.681113 1.02305,-6.279448 0,-2.328335 -1.09361,-3.70417 -1.05833,-1.411112 -3.175,-1.411112 -1.62278,0 -3.03389,0.952501 -1.37584,0.917223 -2.39889,2.57528 -0.98778,1.658056 -1.55222,3.810002 -0.56445,2.116668 -0.56445,4.550837 0,2.504723 1.16417,3.810002 1.16417,1.305279 3.21028,1.305279 z"
         style="font-style:italic;font-weight:bold;font-size:35.2778px;font-family:Barlow;-inkscape-font-specification:'Barlow Bold'"
         id="path883" />
      <path
         d="m 177.61744,96.547313 4.37445,-20.743348 h -6.06778 l 0.9525,-4.445003 h 17.39195 l -0.9525,4.445003 h -6.06778 l -4.37445,20.743348 z"
         style="font-style:italic;font-weight:bold;font-size:35.2778px;font-family:Barlow;-inkscape-font-specification:'Barlow Bold'"
         id="path885" />
      <path
         d="m 190.74079,96.547313 0.635,-3.033891 3.21028,-1.411112 3.45723,-16.298345 -2.61056,-1.411112 0.635,-3.033891 h 11.14778 l -0.635,3.033891 -3.28083,1.411112 -3.45723,16.298345 2.68112,1.411112 -0.635,3.033891 z"
         style="font-style:italic;font-weight:bold;font-size:35.2778px;font-family:Barlow;-inkscape-font-specification:'Barlow Bold'"
         id="path887" />
      <path
         d="m 216.63467,96.900091 q -4.58611,0 -6.91444,-2.681113 -2.32834,-2.681113 -2.32834,-7.196672 0,-2.222501 0.49389,-4.480281 0.52917,-2.293057 1.55222,-4.339169 1.05834,-2.081391 2.64584,-3.704169 1.5875,-1.658057 3.77472,-2.57528 2.18723,-0.952501 5.00945,-0.952501 2.39889,0 4.05695,0.458612 1.69333,0.423333 3.35139,1.340556 l -2.04611,4.303892 q -1.19945,-0.705556 -2.50473,-1.164167 -1.27,-0.49389 -2.8575,-0.49389 -2.11667,0 -3.66889,1.058334 -1.51695,1.058334 -2.50472,2.751669 -0.98778,1.693334 -1.48167,3.704169 -0.45861,1.975557 -0.45861,3.810003 0,2.857502 1.16416,4.268614 1.19945,1.411112 3.77473,1.411112 1.41111,0 2.89278,-0.352778 1.48167,-0.388056 2.92806,-0.987779 v 4.480281 q -1.05834,0.423334 -2.82223,0.881945 -1.76389,0.458612 -4.05695,0.458612 z"
         style="font-style:italic;font-weight:bold;font-size:35.2778px;font-family:Barlow;-inkscape-font-specification:'Barlow Bold'"
         id="path889" />
      <path
         d="m 233.70911,96.900091 q -1.905,0 -3.4925,-0.423334 -1.55222,-0.423334 -2.64583,-1.12889 v -4.727225 q 1.55222,0.881945 3.06916,1.375834 1.51695,0.493889 3.10445,0.493889 1.72861,0 2.89278,-0.670278 1.19945,-0.670278 1.19945,-2.08139 0,-1.44639 -0.84667,-2.257779 -0.84667,-0.846668 -2.18723,-1.834446 -1.05833,-0.740834 -2.04611,-1.693335 -0.98778,-0.987778 -1.62278,-2.257779 -0.635,-1.305279 -0.635,-3.033891 0,-2.222501 1.05834,-3.951114 1.05833,-1.728612 2.99861,-2.71639 1.97556,-0.987779 4.58611,-0.987779 1.97556,0 3.63362,0.423334 1.65805,0.423333 3.21028,1.270001 l -1.86973,4.021669 q -2.71639,-1.270001 -4.97417,-1.270001 -1.41111,0 -2.32833,0.776112 -0.91722,0.740834 -0.91722,2.046112 0,1.340557 0.81139,2.151946 0.81139,0.776112 2.29305,1.76389 2.08139,1.375835 3.10445,3.033891 1.05833,1.658057 1.05833,3.880558 0,2.645836 -1.30528,4.374448 -1.27,1.728612 -3.42194,2.575279 -2.11667,0.846668 -4.72723,0.846668 z"
         style="font-style:italic;font-weight:bold;font-size:35.2778px;font-family:Barlow;-inkscape-font-specification:'Barlow Bold'"
         id="path891" />
    </g>
    <path
       style="opacity:1;fill:none;stroke:#4c6cd6;stroke-width:4.53478;stroke-linecap:butt;stroke-linejoin:miter;stroke-miterlimit:4;stroke-dasharray:none;stroke-opacity:1"
       d="m 91.91565,40.604712 -2.01,19.851575"
       id="path2264" />
    <path
       style="color:#000000;font-style:normal;font-variant:normal;font-weight:normal;font-stretch:normal;font-size:medium;line-height:normal;font-family:sans-serif;font-variant-ligatures:normal;font-variant-position:normal;font-variant-caps:normal;font-variant-numeric:normal;font-variant-alternates:normal;font-variant-east-asian:normal;font-feature-settings:normal;font-variation-settings:normal;text-indent:0;text-align:start;text-decoration:none;text-decoration-line:none;text-decoration-style:solid;text-decoration-color:#000000;letter-spacing:normal;word-spacing:normal;text-transform:none;writing-mode:lr-tb;direction:ltr;text-orientation:mixed;dominant-baseline:auto;baseline-shift:baseline;text-anchor:start;white-space:normal;shape-padding:0;shape-margin:0;inline-size:0;clip-rule:nonzero;display:inline;overflow:visible;visibility:visible;opacity:1;isolation:auto;mix-blend-mode:normal;color-interpolation:sRGB;color-interpolation-filters:linearRGB;solid-color:#000000;solid-opacity:1;vector-effect:none;fill:#4c6cd6;fill-opacity:1;fill-rule:nonzero;stroke:none;stroke-linecap:square;stroke-linejoin:miter;stroke-miterlimit:4;stroke-dasharray:none;stroke-dashoffset:0;stroke-opacity:1;color-rendering:auto;image-rendering:auto;shape-rendering:auto;text-rendering:auto;enable-background:accumulate;stop-color:#000000;stop-opacity:1"
       d="m 57.519531,42.860941 v 3.476823 a 0.52916667,0.52916667 45 0 0 0.529167,0.529167 h 1.209244 11.792969 a 1.3804166,1.3804166 20.973746 0 1 0.922739,0.353721 l 5.443325,4.892167 a 1.3804166,1.3804166 20.973746 0 0 0.922739,0.353721 h 24.339316 a 0.59742368,0.59742368 138.46716 0 0 0.59306,-0.525296 l 0.42379,-3.484564 A 0.46870817,0.46870817 48.467156 0 0 103.2306,47.931384 H 80.077995 A 1.3804164,1.3804164 20.973748 0 1 79.155256,47.577663 L 73.711931,42.685495 A 1.3804164,1.3804164 20.973748 0 0 72.789192,42.331774 H 60.316276 58.048698 a 0.52916667,0.52916667 135 0 0 -0.529167,0.529167 z"
       id="path833-8-4" />
    <path
       id="path873-4-5"
       style="opacity:1;fill:#ffffff;stroke:#4c6cd6;stroke-width:4.39483;stroke-linecap:round;stroke-linejoin:round"
       d="m 64.392258,44.599319 a 4.6047592,4.6047602 0 0 1 -4.60476,4.604761 4.6047592,4.6047602 0 0 1 -4.604759,-4.604761 4.6047592,4.6047602 0 0 1 4.604759,-4.60476 4.6047592,4.6047602 0 0 1 4.60476,4.60476 z" />
    <path
       style="color:#000000;font-style:normal;font-variant:normal;font-weight:normal;font-stretch:normal;font-size:medium;line-height:normal;font-family:sans-serif;font-variant-ligatures:normal;font-variant-position:normal;font-variant-caps:normal;font-variant-numeric:normal;font-variant-alternates:normal;font-variant-east-asian:normal;font-feature-settings:normal;font-variation-settings:normal;text-indent:0;text-align:start;text-decoration:none;text-decoration-line:none;text-decoration-style:solid;text-decoration-color:#000000;letter-spacing:normal;word-spacing:normal;text-transform:none;writing-mode:lr-tb;direction:ltr;text-orientation:mixed;dominant-baseline:auto;baseline-shift:baseline;text-anchor:start;white-space:normal;shape-padding:0;shape-margin:0;inline-size:0;clip-rule:nonzero;display:inline;overflow:visible;visibility:visible;opacity:1;isolation:auto;mix-blend-mode:normal;color-interpolation:sRGB;color-interpolation-filters:linearRGB;solid-color:#000000;solid-opacity:1;vector-effect:none;fill:#4c6cd6;fill-opacity:1;fill-rule:nonzero;stroke:none;stroke-linecap:square;stroke-linejoin:miter;stroke-miterlimit:4;stroke-dasharray:none;stroke-dashoffset:0;stroke-opacity:1;color-rendering:auto;image-rendering:auto;shape-rendering:auto;text-rendering:auto;enable-background:accumulate;stop-color:#000000;stop-opacity:1"
       d="m 70.072266,58.96862 v 3.476822 a 0.52916667,0.52916667 45 0 0 0.529167,0.529167 h 1.209244 32.481633 a 0.59742368,0.59742368 138.46716 0 0 0.59306,-0.525296 l 0.42379,-3.484564 a 0.46870817,0.46870817 48.467156 0 0 -0.46528,-0.525296 H 72.869011 70.601433 a 0.52916667,0.52916667 135 0 0 -0.529167,0.529167 z"
       id="path833-4-0" />
    <path
       id="path873-1-6"
       style="opacity:1;fill:#ffffff;stroke:#4c6cd6;stroke-width:4.39483;stroke-linecap:round"
       d="m 76.955316,60.230785 a 4.6047602,4.6047597 0 0 1 -4.604761,4.60476 4.6047602,4.6047597 0 0 1 -4.60476,-4.60476 4.6047602,4.6047597 0 0 1 4.60476,-4.604759 4.6047602,4.6047597 0 0 1 4.604761,4.604759 z" />
    <path
       style="color:#000000;font-style:normal;font-variant:normal;font-weight:normal;font-stretch:normal;font-size:medium;line-height:normal;font-family:sans-serif;font-variant-ligatures:normal;font-variant-position:normal;font-variant-caps:normal;font-variant-numeric:normal;font-variant-alternates:normal;font-variant-east-asian:normal;font-feature-settings:normal;font-variation-settings:normal;text-indent:0;text-align:start;text-decoration:none;text-decoration-line:none;text-decoration-style:solid;text-decoration-color:#000000;letter-spacing:normal;word-spacing:normal;text-transform:none;writing-mode:lr-tb;direction:ltr;text-orientation:mixed;dominant-baseline:auto;baseline-shift:baseline;text-anchor:start;white-space:normal;shape-padding:0;shape-margin:0;inline-size:0;clip-rule:nonzero;display:inline;overflow:visible;visibility:visible;opacity:1;isolation:auto;mix-blend-mode:normal;color-interpolation:sRGB;color-interpolation-filters:linearRGB;solid-color:#000000;solid-opacity:1;vector-effect:none;fill:#4c6cd6;fill-opacity:1;fill-rule:nonzero;stroke:#4c6cd6;stroke-width:0;stroke-linecap:square;stroke-linejoin:round;stroke-miterlimit:4;stroke-dasharray:none;stroke-dashoffset:0;stroke-opacity:1;color-rendering:auto;image-rendering:auto;shape-rendering:auto;text-rendering:auto;enable-background:accumulate;stop-color:#000000;stop-opacity:1"
       d="m 71.813751,29.360438 -2.52008,2.395798 a 0.52932356,0.52932356 91.456727 0 0 -0.01903,0.748224 l 0.833526,0.877285 a 2612.713,2612.713 46.453615 0 0 0.72913,0.767098 l 7.93087,8.340472 a 1.2333893,1.2333893 23.221006 0 0 0.89381,0.383475 h 27.321093 a 0.59742368,0.59742368 138.46716 0 0 0.59306,-0.525296 l 0.42379,-3.484564 a 0.46870817,0.46870817 48.467156 0 0 -0.46528,-0.525296 H 81.607292 a 1.2332855,1.2332855 23.222753 0 1 -0.893786,-0.383497 l -6.589121,-6.930272 a 3075.8028,3075.8028 46.455363 0 1 -0.729106,-0.76712 L 72.561753,29.37946 a 0.52900982,0.52900982 1.4567273 0 0 -0.748002,-0.01902 z"
       id="path833-8-6-9" />
    <path
       id="path873-4-7-0"
       style="opacity:1;fill:#ffffff;stroke:#4c6cd6;stroke-width:4.39483;stroke-linecap:round;stroke-linejoin:round"
       d="m 76.720763,32.202145 a 4.6047583,4.6047597 0 0 1 -4.604758,4.604759 4.6047583,4.6047597 0 0 1 -4.604758,-4.604759 4.6047583,4.6047597 0 0 1 4.604758,-4.60476 4.6047583,4.6047597 0 0 1 4.604758,4.60476 z" />
  </g>
</svg>
